JUST TEENS PORN BUSTY TEEN SILVERDUST{HKRG} 
http://img3.immage.de/12032b8image49089765.jpg 
http://img2.immage.de/1203image49092203.jpg 
http://img2.immage.de/12031image49094015.jpg 
http://img1.immage.de/1203bcimage49095765.jpg
[img]http://img3.immage.de/12032b8image49089765.jpg[/img]

[img]http://img2.immage.de/1203image49092203.jpg[/img]

[img]http://img2.immage.de/12031image49094015.jpg[/img]

[img]http://img1.immage.de/1203bcimage49095765.jpg[/img]
 
http://www.leetleech.org/images/18303343431790770369.jpg
    	http://www.leetleech.org/images/19434850862042516343.png
    	http://www.leetleech.org/images/12500027222855510612.png
    	http://www.leetleech.org/images/24117247422222371002.png
Format                           : Windows Media
File size                        : 760 MiB
Duration                         : 22mn 36s
Overall bit rate mode            : Variable
Overall bit rate                 : 4 699 Kbps
Maximum Overall bit rate         : 20.2 Mbps
Encoded date                     : UTC 2007-03-31 17:57:52.843

Video
ID                               : 2
Format                           : VC-1
Format profile                   : MP@HL
Codec ID                         : WMV3
Codec ID/Info                    : Windows Media Video 9
Codec ID/Hint                    : WMV3
Description of the codec         : Windows Media Video 9 - Professional
Duration                         : 22mn 36s
Bit rate mode                    : Variable
Bit rate                         : 4 500 Kbps
Width                            : 1 280 pixels
Height                           : 720 pixels
Display aspect ratio             : 16:9
Frame rate                       : 25.000 fps
Bit depth                        : 8 bits
Scan type                        : Progressive
Compression mode                 : Lossy
Bits/(Pixel*Frame)               : 0.195
Stream size                      : 728 MiB (96%)

Audio
ID                               : 1
Format                           : WMA
Format version                   : Version 2
Codec ID                         : 161
Codec ID/Info                    : Windows Media Audio
Description of the codec         : Windows Media Audio 9.2 -  96 kbps, 44 kHz, stereo 2-pass CBR
Duration                         : 22mn 36s
Bit rate mode                    : Constant
Bit rate                         : 96.0 Kbps
Channel(s)                       : 2 channels
Sampling rate                    : 44.1 KHz
Bit depth                        : 16 bits
Stream size                      : 15.5 MiB (2%)
NJOI